<svg id="레이어_1" data-name="레이어 1" xmlns="http://www.w3.org/2000/svg" viewBox="0 0 660 772">
    <defs>
        <linearGradient id="hair-color" x1="" y1="" x2="" y2="" spreadMethod="">
            <!-- offset : 시작지점
                 stop-color:멈춘 지점의 색깔 -->
            <stop offset="0%" stop-color="yellow" stop-opacity="0.2"/>
            <stop offset="50%" stop-color="hotpink" stop-opacity="0.5" />
            <stop offset="100%" stop-color="#28ca28" stop-opacity="1" />
        </linearGradient>
        <style>
            .hair{
                fill:url('#hair-color')
            }
            </style>
    </defs>

    <path d="M960,863a310,310,0,1,1,219.2-90.8A308,308,0,0,1,960,863Z" transform="translate(-630 -111)"
        style="fill:#fff" />
    <path
        d="M960,263a288.92,288.92,0,1,1-112.87,22.77A288.17,288.17,0,0,1,960,263m0-40c-182.25,0-330,147.75-330,330S777.75,883,960,883s330-147.75,330-330S1142.25,223,960,223Z"
        transform="translate(-630 -111)" />
    <path d="M1164.42,678.82a240.07,240.07,0,0,1-405.28,5.59" transform="translate(-630 -111)"
        style="fill:#fff;stroke:#000;stroke-miterlimit:10;stroke-width:40px" />
    <path d="M838.65,514.65A12.65,12.65,0,1,1,851.3,502,12.66,12.66,0,0,1,838.65,514.65Z"
        transform="translate(-630 -111)" style="fill:#fff" />
    <path d="M838.65,469.35A32.65,32.65,0,1,0,871.3,502a32.65,32.65,0,0,0-32.65-32.65Z"
        transform="translate(-630 -111)" />
    <circle cx="451.35" cy="391" r="12.65" style="fill:#fff" />
    <path d="M1081.35,469.35A32.65,32.65,0,1,0,1114,502a32.65,32.65,0,0,0-32.65-32.65Z"
        transform="translate(-630 -111)" />
    <ellipse class="hair" cx="315.5" cy="140" rx="162.26" ry="130" />
    <ellipse class="hair" cx="466" cy="162" rx="150" ry="120" />
    <ellipse class="hair" cx="371" cy="120.5" rx="130" ry="102.5" />
    <ellipse class="hair" cx="256" cy="120" rx="150" ry="120" />
    <ellipse class="hair" cx="166" cy="170" rx="150" ry="120" />
</svg>